<svg data-tag="IconChart" xmlns="http://www.w3.org/2000/svg" viewBox="0 0 24 24"><path d="M12 3c.9 0 1.462.113 1.8.45.337.338.45.9.45 1.8v13.5c0 .9-.113 1.462-.45 1.8-.338.337-.9.45-1.8.45s-1.462-.113-1.8-.45c-.337-.338-.45-.9-.45-1.8V5.25c0-.9.113-1.462.45-1.8.338-.337.9-.45 1.8-.45M3 9.75v9c0 .9.113 1.462.45 1.8.338.337.9.45 1.8.45s1.462-.113 1.8-.45c.337-.338.45-.9.45-1.8v-9c0-.9-.113-1.462-.45-1.8-.338-.337-.9-.45-1.8-.45s-1.462.113-1.8.45c-.337.338-.45.9-.45 1.8m13.5 4.5v4.5c0 .9.113 1.462.45 1.8.338.337.9.45 1.8.45s1.462-.113 1.8-.45c.337-.338.45-.9.45-1.8v-4.5c0-.9-.113-1.462-.45-1.8-.338-.337-.9-.45-1.8-.45s-1.462.113-1.8.45c-.337.338-.45.9-.45 1.8"></path></svg>