<svg data-tag="IconLaunch" xmlns="http://www.w3.org/2000/svg" viewBox="0 0 24 24"><path d="M6.635 17.365c.485.485.734.748.824.982.09.234.023.439-.125.807a2.767 2.767 0 0 1-1.254 1.425c-.561.308-1.246.449-2 .417a1.131 1.131 0 0 1-.743-.324 1.1 1.1 0 0 1-.332-.736c-.033-.714.1-1.4.405-1.974a2.769 2.769 0 0 1 1.436-1.296c.368-.148.573-.215.807-.125.234.09.497.339.982.824M17.981 12.1c-.228.315-.352.525-.408.754-.057.228-.045.475-.003.861.105.959.041 1.93-.192 2.868a7.962 7.962 0 0 1-1.212 2.656c-.286.408-.57.617-.87.635-.3.018-.617-.155-.973-.511l-.777-.778-.778-.778c-.23-.23-.407-.354-.6-.388-.192-.033-.402.025-.698.159l-.004.001-.003.002c-.886.399-1.304.603-1.673.536-.37-.068-.69-.408-1.38-1.098l-.714-.715-.715-.715c-.69-.69-1.027-1.008-1.092-1.377-.066-.368.139-.786.53-1.675l.001-.004.002-.003c.134-.297.192-.506.158-.699-.033-.192-.157-.368-.387-.598l-.778-.779-.778-.778c-.356-.355-.53-.673-.511-.973.018-.3.227-.583.635-.87a7.962 7.962 0 0 1 2.656-1.21 8.183 8.183 0 0 1 2.868-.193c.386.042.632.054.86-.003.23-.056.44-.18.754-.408a19.715 19.715 0 0 1 3.951-2.236c1.223-.507 2.287-.772 3.004-.782.828-.012 1.37.11 1.702.443.332.332.454.874.443 1.702-.01.716-.275 1.78-.783 3.003a19.712 19.712 0 0 1-2.235 3.951M16.5 9c0-.414-.168-.79-.44-1.06A1.495 1.495 0 0 0 15 7.5c-.414 0-.79.168-1.06.44a1.495 1.495 0 0 0 0 2.121 1.495 1.495 0 0 0 2.121 0c.271-.272.439-.647.439-1.06"></path></svg>