<svg xmlns="http://www.w3.org/2000/svg" viewBox="0 0 64 64" id="text-underline">
  <path d="m13.38 20.25 3.25 1.16c.25.09.53-.04.63-.29l.14-.39c.71-1.85 1.57-3.36 2.55-4.49.96-1.11 1.99-1.91 3.06-2.36 1.07-.46 2.56-.7 4.41-.7.68 0 .94.05 1.05.08.01.14.04.46.04 1.12v27.06c0 1.67-.21 2.24-.3 2.41-.16.3-.41.49-.79.6-.13.03-.67.11-2.77.13l-.42.01a.49.49 0 0 0-.49.49v3.14c0 .27.22.49.5.49h15.58c.27 0 .49-.22.49-.49v-3.14c0-.27-.22-.49-.48-.49l-.42-.01c-1.95-.02-2.6-.1-2.81-.15-.28-.07-.5-.16-.64-.29-.13-.12-.25-.33-.33-.61-.05-.16-.17-.71-.17-2.28V14.73c0-.93.04-1.34.05-1.5.17-.02.58-.05 1.48-.05 2.32 0 4.24.55 5.69 1.64 1.49 1.11 2.8 3.1 3.92 5.92l.15.38c.1.25.37.38.62.28l3.25-1.15a.48.48 0 0 0 .28-.26c.06-.11.07-.25.02-.37L46.65 7.71a.493.493 0 0 0-.46-.33h-2.66c-.24 0-.44.17-.48.41l-.15.88H20.96l-.19-.9a.491.491 0 0 0-.48-.39h-2.56c-.21 0-.4.13-.47.33l-4.18 11.91c-.09.26.05.54.3.63zm48.01 31.16H2.61A2.61 2.61 0 0 0 0 54.01c0 1.44 1.17 2.61 2.61 2.61h58.78c1.44 0 2.61-1.17 2.61-2.61 0-1.43-1.17-2.6-2.61-2.6z"></path>
</svg>